<svg xmlns="http://www.w3.org/2000/svg" width="209.582" height="87.954" viewBox="0 0 209.582 87.954">
  <g id="Group_3070" data-name="Group 3070" transform="translate(0)">
    <g id="Group_3077" data-name="Group 3077">
      <path id="Path_6961" data-name="Path 6961" d="M205.183,42.361l-22.378.046,6.161-7.779,0-11.259s0-.439,0-.47c0-4.443-4.107-8.4-8.869-8.4a7.994,7.994,0,0,0-6.813,3.26L170.906,20.7a8.807,8.807,0,0,0-15.326-2.822l-1.568,1.941c.13-1.072-.584-5-4.4-5a4.211,4.211,0,0,0-3,1.273c-.11.112-5.087,6.272-5.087,6.272L141.5,19.42a4.545,4.545,0,0,0-4.4-4.569,4.249,4.249,0,0,0-3.334,1.645c.01-.011.017-.024.027-.035l-4.274,5.3a18.754,18.754,0,0,0-1.387-1.541,18.065,18.065,0,0,0-12.75-5.327c-6.5,0-11.2,1.765-17.505,10.61,0,0-.024-1.395-.024-2.415,0-4-3.623-8.2-8.839-8.206a8.4,8.4,0,0,0-4.374,1.178,8.781,8.781,0,0,0-12.547,4.426,4.119,4.119,0,0,0-1.159-4.227,4.4,4.4,0,0,0-3.1-1.272l-3.144.008L64.61,4.571a4.635,4.635,0,0,0-1.39-3.312A4.2,4.2,0,0,0,60.212,0a4.271,4.271,0,0,0-3.323,1.624L46,15.226a4.472,4.472,0,0,0-1.254-.19,4.2,4.2,0,0,0-2.99,1.261q-.129.13-.246.268L40.206,17.77,48.489,7.5l-.008.009a4.562,4.562,0,0,0-.361-6.142A4.645,4.645,0,0,0,44.955.033a4.509,4.509,0,0,0-3.636,1.694L32.96,12.09,32.9,4.623a4.687,4.687,0,0,0-1.379-3.311A4.318,4.318,0,0,0,28.5.064a3.929,3.929,0,0,0-3,1.263l-.081.1C24.146,3,8.351,22.61,8.351,22.61l-.229.284a4.623,4.623,0,0,0-1.009,2.974v4.36L.963,37.894a4.357,4.357,0,0,0,.34,5.84A4.412,4.412,0,0,0,4.4,45l2.861-.011,0,22.454v.13c0,2.935,1.806,4.912,4.588,4.912l6.86,0h.175a5,5,0,0,0,3.555-1.468c.013-.013.218-.234.218-.234s.853-1.033,1.167-1.416a4.455,4.455,0,0,0,4.149,3.087,4.232,4.232,0,0,0,3.3-1.607l7.821-9.89,0,6.826v.071a4.764,4.764,0,0,0,1.447,3.312,4.247,4.247,0,0,0,3.008,1.257h.111l6.936,0,.158,0a4.948,4.948,0,0,0,3.71-1.79l.695-.862a4.638,4.638,0,0,0,.951,1.364,4.284,4.284,0,0,0,3.018,1.258,4.185,4.185,0,0,0,2.99-1.262,4.614,4.614,0,0,0,.316-.352L63.7,69.2a4.644,4.644,0,0,0,1.166,1.918,4.289,4.289,0,0,0,3.019,1.258,4.231,4.231,0,0,0,3.294-1.608l1.28-1.587a4.466,4.466,0,0,0,4.177,3.18,4.236,4.236,0,0,0,3-1.272,4.569,4.569,0,0,0,.314-.352l4.141-5.133A18.482,18.482,0,0,0,98.341,72.32a18.046,18.046,0,0,0,14.137-6.763l3.685-4.63-.255,1.819a10.673,10.673,0,0,0,10.5,9.794h.147a10.51,10.51,0,0,0,8.2-3.914l2.455-3.107a8.937,8.937,0,0,0,8.633,6.775c5.555,0,8.9-5.859,8.9-5.859a8.937,8.937,0,0,0,3.74,4.539,8.765,8.765,0,0,0,4.691,1.432c.043,0,.087,0,.13,0,.313-.007,22.679.013,24.707,0h.147a4.445,4.445,0,0,0,3.369-1.741l.093-.115c4.964-6.153,16.8-20.8,16.8-20.8a4.6,4.6,0,0,0,1.17-3.035,4.406,4.406,0,0,0-4.4-4.352M42.5,2.241a3.271,3.271,0,0,1,2.378-1h.042a3.371,3.371,0,0,1,.015,6.742h-.08A3.374,3.374,0,0,1,42.5,2.241" transform="translate(0 0)"/>
      <path id="Path_6962" data-name="Path 6962" d="M105.643,3.065H105.6a3.272,3.272,0,0,0-2.378,1,3.382,3.382,0,0,0,2.356,5.747h.08a3.371,3.371,0,0,0-.016-6.742" transform="translate(-60.725 -1.82)" fill="#fff"/>
      <path id="Path_6963" data-name="Path 6963" d="M62.619,24.327a3.31,3.31,0,0,0,3.431-3.148,3.24,3.24,0,0,0-3.43-3.145l-.3,0-3.9,0V6.409a3.31,3.31,0,0,0-3.149-3.431,3.239,3.239,0,0,0-3.145,3.429V18.054l-3.993.006a3.129,3.129,0,0,0-2.184,5.364,3.168,3.168,0,0,0,2.234.922l3.958,0,.006,23.825,0,.3a3.469,3.469,0,0,0,1.012,2.456,3.061,3.061,0,0,0,2.158.9h.166l6.612-.014h.171A3.826,3.826,0,0,0,65,50.729a2.927,2.927,0,0,0,.865-2.063,3.447,3.447,0,0,0-3.642-3.144l-3.347.007H58.43l-.009-21.212,3.83,0Z" transform="translate(-26.736 -1.769)" fill="#fff"/>
      <path id="Path_6964" data-name="Path 6964" d="M457.514,66.545H431.239V56.408l8.863,0,0-10.216a7.623,7.623,0,0,0-15.244.2s0,.074,0,.214c.023,1.968.013,19.222.013,19.222l0,.651c0,4.177,2.942,6.407,6.879,6.407h.618l25.188,0a3.17,3.17,0,0,0-.048-6.339M431.149,45.866c0-.421-.066-1.871,1.312-1.871s1.332,1.426,1.332,1.819c0,.021,0,.07,0,.142.008.766,0,4.155,0,4.155l-2.642.012V45.866Z" transform="translate(-252.326 -22.972)" fill="#fff"/>
      <path id="Path_6965" data-name="Path 6965" d="M349,42.869a3.208,3.208,0,1,0-6.408.012v.195l-.023,21.179s0,.284,0,.327c0,.681-.319,3.435-2.941,3.435s-3.138-2.75-3.138-3.443c0-.028,0-.264,0-.264L336.5,43.1l0-.207a3.208,3.208,0,1,0-6.408.012V43.1l.011,21,.031.48a9.685,9.685,0,0,0,9.417,9.007A9.552,9.552,0,0,0,349,64.592l.013-.446L349,43.076Z" transform="translate(-196.044 -23.461)" fill="#fff"/>
      <path id="Path_6966" data-name="Path 6966" d="M195.329,39.629a7.488,7.488,0,0,0-4.039,1.185l-.329.2-.327-.2a7.587,7.587,0,0,0-3.944-1.173c-4.147,0-7.64,3.343-7.685,6.729,0,.023,0,.046,0,.069v23.7a3.2,3.2,0,0,0,3.263,3.366,3.087,3.087,0,0,0,3.151-3.366v-.128l0-23.963v-.062a1.183,1.183,0,0,1,2.35.006v.061l0,23.957v.128a3.235,3.235,0,1,0,6.464,0v-.121s.009-22.922,0-23.975v-.034a1.18,1.18,0,0,1,2.352.065v.043l-.015,23.907,0,.12a3.208,3.208,0,1,0,6.408,0v-.191l-.009-23.294c0-3.421-3.435-7.021-7.635-7.021" transform="translate(-106.312 -23.536)" fill="#fff"/>
      <path id="Path_6967" data-name="Path 6967" d="M389.476,49.424h-.06c-.507.01-1.648.177-1.648.177s0-3.861,0-4.37a1.172,1.172,0,0,1,1.271-1.158c.5,0,1.23.221,1.37,1.534a3.2,3.2,0,0,0,3.141,2.753,3.012,3.012,0,0,0,3.034-3.127,7.6,7.6,0,0,0-15.108,1.6c0,6.024,3.648,9.114,7.7,9.114.318,0,1.574-.136,1.574-.136l0,10.582v.058c0,.8-.6,1.118-1.29,1.118-.668-.007-1.323-.328-1.323-1.115v-.177l-.009-6.188a3.191,3.191,0,0,0-3.172-3.136A3.115,3.115,0,0,0,381.83,60.1l.015,5.572a7.6,7.6,0,0,0,7.646,7.209c4.2,0,7.476-3.862,7.476-6.38,0-2.9,0-10.486,0-10.486-.109-4.021-3.756-6.548-7.49-6.593" transform="translate(-226.56 -23.013)" fill="#fff"/>
      <path id="Path_6968" data-name="Path 6968" d="M108.836,43.547v-.192a3.153,3.153,0,1,0-6.294,0v.189l.019,26.608,0,.278a3.153,3.153,0,1,0,6.294,0l0-.307Z" transform="translate(-60.901 -23.757)" fill="#fff"/>
      <path id="Path_6969" data-name="Path 6969" d="M140.8,24.271h.141a3.143,3.143,0,0,0-.05-6.286h-.154l-4.3,0V6.627l0-.205a3.31,3.31,0,0,0-3.149-3.431,3.239,3.239,0,0,0-3.145,3.429l0,.145V18l-3.993.017a3.129,3.129,0,0,0-2.185,5.363,3.172,3.172,0,0,0,2.235.922l3.958,0,.006,23.825,0,.3a3.472,3.472,0,0,0,1.013,2.457,3.063,3.063,0,0,0,2.158.9h6.778l.171-.013a3.827,3.827,0,0,0,2.728-1.081,2.924,2.924,0,0,0,.865-2.063,3.442,3.442,0,0,0-3.642-3.137h-3.8l0-21.212Z" transform="translate(-73.066 -1.776)" fill="#fff"/>
      <path id="Path_6970" data-name="Path 6970" d="M259.065,39.679h-.252a16.828,16.828,0,0,0-12.06,5.016A16.578,16.578,0,0,0,241.907,56.6a17.113,17.113,0,0,0,16.932,16.857h.242a16.81,16.81,0,0,0,11.873-28.815,17.113,17.113,0,0,0-11.889-4.969m13.956,18.393s-3.145.6-3.378.666a6.162,6.162,0,0,1-2.2,1.991,9.816,9.816,0,0,1-2.563,3.293l2.561.739s.476.98-.587.751-2.84-.853-2.885-.869a7.051,7.051,0,0,1-3.554.915h0c-.2,0-.4-.008-.6-.022l.928,1.815s-.043,1.627-1.8.257l-.627-2.3a14.981,14.981,0,0,1-5.648-2.76,8.316,8.316,0,0,1-1.084-1.062c-.177-.247-4.244-3.494-6.844-5.549l-.5-.4.633.1c4.579.688,6.089.984,6.581,1.109a7.921,7.921,0,0,1,4.845-3.355,5.2,5.2,0,0,1,1.077-.169,4.056,4.056,0,0,1,1.7-2.595,1.435,1.435,0,0,0,.016-.222,6.277,6.277,0,0,0-1-1.677c.8.01,1.295-.173,1.473-.543.373-.778-.88-3.089-.88-3.089l6.85,3.709.762.363c1.669.751,5.29,2.35,4.6,6.809.323.344,2.13,2.09,2.13,2.09" transform="translate(-143.67 -23.565)" fill="#fff"/>
      <path id="Path_6971" data-name="Path 6971" d="M81.418,148.561l-.584-8.462-.024-.351-.349-.042L44.736,135.4l-.122-.015-.111.052-7.224,3.414-.067.032-.052.052L18.813,157.281l-.248.248.028.041c-.029.04-.065.076-.092.117a3.309,3.309,0,0,0-.588,1.87,2.872,2.872,0,0,0,.659,1.907,4.125,4.125,0,0,0,1.023.857l-1.354,1.421-.269.283.03.035a1.519,1.519,0,0,0-.216.787,2.812,2.812,0,0,0,.61,1.681A4.293,4.293,0,0,0,20.2,167.85a7.17,7.17,0,0,0,2.823.509,8.252,8.252,0,0,0,2.791-.428l.06.009.113-.072a4.228,4.228,0,0,0,1.405-.893l.027-.017.033-.033,3.1-3.1v.265a8.829,8.829,0,0,0,.23,2.25,2.524,2.524,0,0,0,1.09,1.5,4.125,4.125,0,0,0,2.277.522,5.477,5.477,0,0,0,2.367-.412,2.233,2.233,0,0,0,.347-.212l.028,0,.119-.119c.017-.016.032-.032.048-.048l1.136-1.136c.012.022.023.046.035.067a3.587,3.587,0,0,0,1.451,1.353,4.414,4.414,0,0,0,2.067.48,5.479,5.479,0,0,0,1.668-.237,4.425,4.425,0,0,0,1.375-.727,6.126,6.126,0,0,0,.472-.409,1.86,1.86,0,0,0,.422.827,1.669,1.669,0,0,0,1.29.567,1.737,1.737,0,0,0,.8-.189l.467-.346,2.968-2.968v1.329a2.286,2.286,0,0,0,.516,1.587,1.728,1.728,0,0,0,1.332.588,1.85,1.85,0,0,0,.833-.192l.516-.381L59.2,163v3.189a2.286,2.286,0,0,0,.516,1.587,1.728,1.728,0,0,0,1.332.588,1.872,1.872,0,0,0,.79-.167l.559-.405,18.9-18.9.137-.137Z" transform="translate(-10.563 -80.405)"/>
      <path id="Path_6972" data-name="Path 6972" d="M71.85,153.693a3.187,3.187,0,0,1-2.19,3.176,7.326,7.326,0,0,1-2.632.418,6.418,6.418,0,0,1-2.537-.454A3.692,3.692,0,0,1,62.93,155.7a2.28,2.28,0,0,1-.5-1.364,1.057,1.057,0,0,1,.322-.775,1.1,1.1,0,0,1,.815-.322.953.953,0,0,1,.664.211,2.324,2.324,0,0,1,.443.594,3.012,3.012,0,0,0,1.012,1.1,3.054,3.054,0,0,0,1.606.363,2.319,2.319,0,0,0,1.354-.368,1.033,1.033,0,0,0,.528-.841,1.144,1.144,0,0,0-.549-1.057,6.768,6.768,0,0,0-1.807-.634,15.016,15.016,0,0,1-2.311-.74,3.808,3.808,0,0,1-1.425-1.022,2.339,2.339,0,0,1-.534-1.56,2.751,2.751,0,0,1,.493-1.561A3.381,3.381,0,0,1,64.5,146.55a5.57,5.57,0,0,1,2.32-.438,7.64,7.64,0,0,1,1.918.221,4.786,4.786,0,0,1,1.419.594,2.93,2.93,0,0,1,.866.826,1.618,1.618,0,0,1,.3.886,1.023,1.023,0,0,1-.318.775,1.254,1.254,0,0,1-.9.3,1.1,1.1,0,0,1-.72-.242,4.731,4.731,0,0,1-.679-.725,2.5,2.5,0,0,0-.735-.644,2.321,2.321,0,0,0-1.148-.241,2.245,2.245,0,0,0-1.238.317.924.924,0,0,0-.493.79.856.856,0,0,0,.362.71,3.019,3.019,0,0,0,.977.458q.614.181,1.691.443a9.056,9.056,0,0,1,2.089.745,3.48,3.48,0,0,1,1.228,1.022,2.266,2.266,0,0,1,.418,1.344" transform="translate(-37.076 -86.777)" fill="#fff"/>
      <path id="Path_6973" data-name="Path 6973" d="M89.861,140.89h.3v-1.651q0-.665.035-1.042a1.541,1.541,0,0,1,.2-.649,1.242,1.242,0,0,1,.463-.458,1.315,1.315,0,0,1,.675-.176,1.356,1.356,0,0,1,.946.393,1.164,1.164,0,0,1,.357.639,5.8,5.8,0,0,1,.076,1.072v1.872h1.007a1.289,1.289,0,0,1,.891.277.914.914,0,0,1,.307.71.8.8,0,0,1-.438.775,2.845,2.845,0,0,1-1.253.221h-.513v5.054a8.229,8.229,0,0,0,.045.991,1.006,1.006,0,0,0,.242.564.824.824,0,0,0,.639.216,3.406,3.406,0,0,0,.655-.086,3.446,3.446,0,0,1,.644-.086.83.83,0,0,1,.6.267.9.9,0,0,1,.267.66,1.1,1.1,0,0,1-.725,1.017,4.9,4.9,0,0,1-2.084.352,3.6,3.6,0,0,1-1.954-.433,2.009,2.009,0,0,1-.871-1.2,8.123,8.123,0,0,1-.206-2.044v-5.276H89.8a1.309,1.309,0,0,1-.906-.282.919.919,0,0,1-.312-.715.888.888,0,0,1,.327-.71,1.438,1.438,0,0,1,.951-.277" transform="translate(-52.61 -81.314)" fill="#fff"/>
      <path id="Path_6974" data-name="Path 6974" d="M116.354,155.737v-.352a6.124,6.124,0,0,1-1.037,1.047,3.81,3.81,0,0,1-1.188.629,4.812,4.812,0,0,1-1.47.207,3.8,3.8,0,0,1-1.787-.413,3.014,3.014,0,0,1-1.224-1.138,5.038,5.038,0,0,1-.513-2.517v-5.446a1.773,1.773,0,0,1,.372-1.233,1.27,1.27,0,0,1,.986-.408,1.31,1.31,0,0,1,1.007.413,1.75,1.75,0,0,1,.382,1.228v4.4a6.8,6.8,0,0,0,.161,1.606,1.932,1.932,0,0,0,.579,1.017,1.656,1.656,0,0,0,1.133.367,2.308,2.308,0,0,0,1.309-.413,2.409,2.409,0,0,0,.9-1.077,8.66,8.66,0,0,0,.232-2.558v-3.342a1.748,1.748,0,0,1,.383-1.228,1.3,1.3,0,0,1,1-.413,1.272,1.272,0,0,1,.987.408,1.778,1.778,0,0,1,.372,1.233v7.963a1.7,1.7,0,0,1-.357,1.178,1.272,1.272,0,0,1-1.853-.016,1.645,1.645,0,0,1-.368-1.142" transform="translate(-64.817 -86.777)" fill="#fff"/>
      <path id="Path_6975" data-name="Path 6975" d="M137.439,140.374h.654v-.826a5.281,5.281,0,0,1,.327-2.049,2.08,2.08,0,0,1,1.108-1.108,5.372,5.372,0,0,1,2.139-.347q2.406,0,2.406,1.178a.93.93,0,0,1-.251.655.786.786,0,0,1-.594.272,4.182,4.182,0,0,1-.554-.061,4.5,4.5,0,0,0-.665-.06q-.746,0-.957.438a2.969,2.969,0,0,0-.211,1.254v.654h.675q1.57,0,1.57.946,0,.675-.417.856a2.966,2.966,0,0,1-1.153.182h-.675v7.279a1.793,1.793,0,0,1-.387,1.243,1.291,1.291,0,0,1-1,.428,1.257,1.257,0,0,1-.972-.428,1.793,1.793,0,0,1-.388-1.243v-7.279h-.755a1.438,1.438,0,0,1-.946-.277.891.891,0,0,1-.332-.72q0-.986,1.379-.987" transform="translate(-80.807 -80.798)" fill="#fff"/>
      <path id="Path_6976" data-name="Path 6976" d="M156.231,140.374h.654v-.826a5.281,5.281,0,0,1,.327-2.049,2.08,2.08,0,0,1,1.108-1.108,5.372,5.372,0,0,1,2.139-.347q2.406,0,2.406,1.178a.93.93,0,0,1-.251.655.786.786,0,0,1-.594.272,4.183,4.183,0,0,1-.553-.061,4.5,4.5,0,0,0-.665-.06q-.746,0-.957.438a2.969,2.969,0,0,0-.211,1.254v.654h.675q1.57,0,1.57.946,0,.675-.417.856a2.966,2.966,0,0,1-1.153.182h-.675v7.279a1.793,1.793,0,0,1-.387,1.243,1.291,1.291,0,0,1-1,.428,1.257,1.257,0,0,1-.972-.428,1.793,1.793,0,0,1-.388-1.243v-7.279h-.755a1.438,1.438,0,0,1-.946-.277.891.891,0,0,1-.332-.72q0-.986,1.379-.987" transform="translate(-91.968 -80.798)" fill="#fff"/>
    </g>
  </g>
</svg>
